<?xml version="1.0" encoding="utf-8"?>
<!-- Generator: Adobe Illustrator 26.1.0, SVG Export Plug-In . SVG Version: 6.00 Build 0)  -->
<svg version="1.1" id="Layer_1" xmlns="http://www.w3.org/2000/svg" xmlns:xlink="http://www.w3.org/1999/xlink" x="0px" y="0px"
	 viewBox="0 0 1920 1080" style="enable-background:new 0 0 1920 1080;" xml:space="preserve">
<style type="text/css">
	.st0{clip-path:url(#SVGID_00000062899446260472098040000001553195333783773843_);}
	.st1{fill:#FBF9EB;}
	.st2{fill:#FFE590;}
	.st3{fill:#FFFFFF;}
	.st4{fill:#F6C01C;}
	.st5{fill:#FFF6BF;}
	.st6{fill:#39BAF9;}
	.st7{fill:#CBECF5;}
	.st8{fill:#F86F6B;}
	.st9{fill:#FBDEDE;}
	.st10{fill:#089486;}
	.st11{fill:#28D4BF;}
	.st12{fill:url(#SVGID_00000034797734113817968800000007976244732080487063_);}
	.st13{fill:url(#SVGID_00000169520270551464698610000012747557736923869848_);}
	.st14{fill:url(#SVGID_00000180337197218643105100000004974710981525811645_);}
	.st15{fill:#F9960D;}
</style>
<g id="Factoring">
	<g>
		<defs>
			<rect id="SVGID_1_" width="1920" height="1080"/>
		</defs>
		<clipPath id="SVGID_00000175289683788577003560000013506790187267632528_">
			<use xlink:href="#SVGID_1_"  style="overflow:visible;"/>
		</clipPath>
		<g style="clip-path:url(#SVGID_00000175289683788577003560000013506790187267632528_);">
			<rect x="-0.6" class="st1" width="1920" height="1080"/>
			<rect x="-0.6" class="st2" width="1920" height="1080"/>
			<polygon class="st3" points="289.6,572.5 421.1,648.5 420.7,799.6 643.8,927.4 753.5,913 1541.9,502.6 1673.4,578.5 1922,237.6 
				1922,1089.4 -0.6,1080 -0.6,520 			"/>
			<g>
				<polygon class="st4" points="289.2,421.1 28.2,572.8 27.7,724 288.8,572.2 				"/>
				<polygon class="st5" points="28.2,572.8 27.7,724 -103.8,648 -103.3,496.9 				"/>
				<polygon class="st3" points="289.2,421.1 157.7,345.2 -103.3,496.9 28.2,572.8 				"/>
			</g>
			<g>
				<polygon class="st6" points="422.5,648.4 422,799.5 291.4,875.4 291.8,724.3 				"/>
				<polygon class="st7" points="291.8,724.3 291.4,875.4 159.9,799.5 160.3,648.4 				"/>
				<polygon class="st3" points="422.5,648.4 291.8,724.3 160.3,648.4 291,572.5 				"/>
			</g>
			<g>
				<polygon class="st8" points="160.7,648.8 160.3,799.9 29.6,875.8 30,724.7 				"/>
				<polygon class="st9" points="30,724.7 29.6,875.8 -101.9,799.9 -101.5,648.8 				"/>
				<polygon class="st3" points="160.7,648.8 30,724.7 -101.5,648.8 29.2,572.8 				"/>
			</g>
			<g>
				<polygon class="st10" points="1934.6,275.9 1934.1,427 1803.5,503 1803.9,351.9 				"/>
				<polygon class="st11" points="1803.9,351.9 1803.5,503 1672,427.1 1672.4,275.9 				"/>
				<polygon class="st3" points="1934.6,275.9 1803.9,351.9 1672.4,275.9 1803.1,200 				"/>
			</g>
			
				<linearGradient id="SVGID_00000062180455696782277520000004111262922965524366_" gradientUnits="userSpaceOnUse" x1="492.8799" y1="77.0299" x2="389.5999" y2="263.7399" gradientTransform="matrix(1 0 0 -1 0 1080)">
				<stop  offset="0" style="stop-color:#CBECF5;stop-opacity:0"/>
				<stop  offset="1" style="stop-color:#39BAF9;stop-opacity:0.5"/>
			</linearGradient>
			<polygon style="fill:url(#SVGID_00000062180455696782277520000004111262922965524366_);" points="291.6,875.7 420.2,951.1 
				553.4,875.7 422.3,799.8 			"/>
			
				<linearGradient id="SVGID_00000111178499475134607010000002698740233681579169_" gradientUnits="userSpaceOnUse" x1="265.6122" y1="119.6927" x2="-19.3178" y2="349.4827" gradientTransform="matrix(1 0 0 -1 0 1080)">
				<stop  offset="0" style="stop-color:#FBDEDE;stop-opacity:0"/>
				<stop  offset="0.73" style="stop-color:#F86F6B;stop-opacity:0.5"/>
			</linearGradient>
			<polygon style="fill:url(#SVGID_00000111178499475134607010000002698740233681579169_);" points="29.8,875.7 158.4,951.1 
				291.6,875.7 160.5,799.8 			"/>
			<g>
				<polygon class="st8" points="1803.3,503 1802.8,654.1 1672.2,730 1672.6,578.9 				"/>
				<polygon class="st9" points="1672.6,578.9 1672.2,730 1540.7,654.1 1541.1,503 				"/>
				<polygon class="st3" points="1803.3,503 1672.6,578.9 1541.1,503 1671.8,427 				"/>
			</g>
			<g>
				<polygon class="st5" points="1934.8,579.3 1934.3,730.4 1802.8,654.5 1803.3,503.4 				"/>
				<polygon class="st3" points="2065.4,503.3 1934.8,579.3 1803.3,503.4 1933.9,427.4 				"/>
			</g>
			<g>
				<polygon class="st6" points="1935.2,881.9 1934.7,1033 1804.1,1108.9 1804.5,957.8 				"/>
				<polygon class="st7" points="1804.5,957.8 1804.1,1108.9 1672.6,1033 1673,881.9 				"/>
				<polygon class="st3" points="1935.2,881.9 1804.5,957.8 1673,881.9 1803.7,806 				"/>
			</g>
			
				<linearGradient id="SVGID_00000067236568687585248060000008987367734958101400_" gradientUnits="userSpaceOnUse" x1="2005.5698" y1="-156.08" x2="1902.2899" y2="30.6299" gradientTransform="matrix(1 0 0 -1 0 1080)">
				<stop  offset="0" style="stop-color:#CBECF5;stop-opacity:0"/>
				<stop  offset="1" style="stop-color:#39BAF9;stop-opacity:0.5"/>
			</linearGradient>
			<polygon style="fill:url(#SVGID_00000067236568687585248060000008987367734958101400_);" points="1804.3,1108.8 1932.9,1184.2 
				2066.1,1108.8 1935,1032.9 			"/>
			<g>
				<polygon class="st8" points="1590.7,830.4 1590.2,995.6 1447.3,1078.6 1447.8,913.4 				"/>
				<polygon class="st9" points="1447.8,913.4 1447.3,1078.6 1303.6,995.6 1304.1,830.4 				"/>
				<polygon class="st3" points="1590.7,830.4 1447.8,913.4 1304.1,830.4 1446.9,747.4 				"/>
			</g>
			<g>
				<polygon class="st8" points="1447.6,582.2 1447.1,747.4 1304.3,830.4 1304.8,665.2 				"/>
				<polygon class="st9" points="1304.8,665.2 1304.3,830.4 1160.6,747.4 1161,582.2 				"/>
				<polygon class="st3" points="1447.6,582.2 1304.8,665.2 1161,582.2 1303.9,499.2 				"/>
			</g>
			<g>
				<polygon class="st8" points="1015.7,830.4 1015.2,995.6 872.4,1078.6 872.8,913.4 				"/>
				<polygon class="st9" points="872.8,913.4 872.4,1078.6 728.6,995.6 729.1,830.4 				"/>
				<polygon class="st3" points="1015.7,830.4 872.8,913.4 729.1,830.4 871.9,747.4 				"/>
			</g>
			<g>
				<polygon class="st6" points="729.1,830.4 728.6,995.6 585.8,1078.6 586.3,913.4 				"/>
				<polygon class="st7" points="586.3,913.4 585.8,1078.6 442.1,995.6 442.5,830.4 				"/>
				<polygon class="st3" points="729.1,830.4 586.3,913.4 442.5,830.4 585.4,747.4 				"/>
			</g>
			<g>
				<polygon class="st6" points="872.6,582.6 872.2,747.8 729.3,830.8 729.8,665.6 				"/>
				<polygon class="st7" points="729.8,665.6 729.3,830.8 585.6,747.8 586,582.6 				"/>
				<polygon class="st3" points="872.6,582.6 729.8,665.6 586,582.6 728.9,499.6 				"/>
			</g>
			<g>
				<polygon class="st4" points="1159.7,582.6 1159.2,747.8 1016.3,830.8 1016.8,665.6 				"/>
				<polygon class="st5" points="1016.8,665.6 1016.3,830.8 872.6,747.8 873.1,582.6 				"/>
				<polygon class="st3" points="1159.7,582.6 1016.8,665.6 873.1,582.6 1015.9,499.6 				"/>
			</g>
			<g>
				<polygon class="st15" points="1302.9,334.5 1302.5,499.6 1159.6,582.6 1160.1,417.5 				"/>
				<polygon class="st4" points="1160.1,417.5 1159.6,582.6 1015.9,499.7 1016.4,334.5 				"/>
				<polygon class="st3" points="1302.9,334.5 1160.1,417.5 1016.4,334.5 1159.2,251.5 				"/>
			</g>
			<g>
				<polygon class="st6" points="1016.6,334.5 1016.1,499.6 873.3,582.6 873.8,417.5 				"/>
				<polygon class="st7" points="873.8,417.5 873.3,582.6 729.6,499.7 730,334.5 				"/>
				<polygon class="st3" points="1016.6,334.5 873.8,417.5 730,334.5 872.9,251.5 				"/>
			</g>
			<g>
				<polygon class="st10" points="1160.1,86.3 1159.7,251.4 1016.8,334.5 1017.3,169.3 				"/>
				<polygon class="st11" points="1017.3,169.3 1016.8,334.5 873.1,251.5 873.5,86.3 				"/>
				<polygon class="st3" points="1160.1,86.3 1017.3,169.3 873.5,86.3 1016.4,3.3 				"/>
			</g>
			<g>
				<polygon class="st8" points="1302.7,830.4 1302.2,995.6 1159.4,1078.6 1159.9,913.4 				"/>
				<polygon class="st9" points="1159.9,913.4 1159.4,1078.6 1015.7,995.6 1016.1,830.4 				"/>
				<polygon class="st3" points="1302.7,830.4 1159.9,913.4 1016.1,830.4 1159,747.4 				"/>
			</g>
			<path class="st15" d="M1174.1,320.8c13-3.4,26.8-1.6,38.5,5c16.6,9.7,12.6,24-3,33s-40.4,11.3-57,1.6
				c-10.6-6.2-14.8-14.3-8.5-22.3c-11.4,2.2-24,0.1-32.5-4.8c-15.8-9.2-14.3-22.2,0.9-31s37.7-9.6,53.5-0.4
				C1174.4,306.9,1177.9,314.2,1174.1,320.8z M1194.6,350.1c7.5-4.3,4.5-11.1-2.2-15s-18.5-5.8-26-1.4s-4.5,11.1,2.4,15.1
				S1187.1,354.5,1194.6,350.1 M1125.9,310.2c-6.8,3.9-3.9,10.2,2.1,13.6s16.9,5.3,23.7,1.4s3.9-10.1-2.3-13.7
				S1132.7,306.3,1125.9,310.2"/>
			<path class="st6" d="M823.9,305.3c16-9.2,36.8-9.5,52.7-0.3c7.1,4.1,12.5,10.2,10.3,16.3c12.2-2.8,26,1.3,34.4,6.2
				c18.1,10.5,16.2,24.6-1.5,34.9c-17,9.8-42.4,9.9-59.8,0.9l18.2-10.5c7.7,4,18.7,4.8,26.7,0.1s4.8-11.6-2.4-15.8
				s-19.3-5.9-26.9-1.5l-0.8,0.5l-3.1,2.1l-12.8-7.5l2-1.1c7.8-4.5,6.8-9.7-0.9-14.2c-6.1-3.5-15.5-4.6-22.3-0.7
				c-6.4,3.7-3.9,9.2,1.5,12.6l-17.3,9.9C807.7,326.9,807.3,314.9,823.9,305.3z"/>
			<path class="st6" d="M683.2,554.8c16-9.2,36.8-9.5,52.7-0.3c7.1,4.1,12.4,10.2,10.3,16.3c12.2-2.8,26,1.3,34.4,6.2
				c18.1,10.5,16.2,24.7-1.5,34.9c-17,9.8-42.3,9.9-59.8,0.8l18.2-10.5c7.7,4.1,18.7,4.8,26.7,0.2s4.8-11.6-2.4-15.8
				c-7.1-4.1-19.3-5.9-26.9-1.5c-0.3,0.2-0.6,0.3-0.8,0.5l-3.1,2.1l-12.8-7.5l2-1.1c7.8-4.5,6.8-9.7-0.9-14.2
				c-6.1-3.6-15.5-4.6-22.3-0.7c-6.4,3.7-3.9,9.2,1.5,12.6l-17.2,9.9C667.1,576.5,666.6,564.4,683.2,554.8z"/>
			<path class="st6" d="M540.4,800.7c16-9.2,36.8-9.5,52.7-0.3c7.1,4.1,12.5,10.2,10.3,16.3c12.2-2.8,26,1.3,34.4,6.2
				c18.1,10.5,16.2,24.7-1.5,34.9c-17,9.8-42.4,9.9-59.8,0.8l18.2-10.5c7.7,4,18.7,4.8,26.7,0.1s4.8-11.6-2.4-15.8
				c-7.1-4.1-19.3-5.9-26.9-1.5c-0.3,0.2-0.6,0.3-0.8,0.5l-3.1,2l-12.8-7.5l2-1.1c7.8-4.5,6.8-9.7-0.9-14.2
				c-6.1-3.5-15.5-4.6-22.3-0.7c-6.4,3.7-3.8,9.2,1.5,12.6l-17.2,9.9C524.2,822.4,523.8,810.3,540.4,800.7z"/>
			<path class="st4" d="M1042.2,578l9.8-5.7l14.4,8.4l-9.8,5.7l16.2,9.4l-17,9.8l-16.3-9.5l-40.8,23.6l-8.1-4.7l-28.2-64.3l16.5-9.5
				L1042.2,578z M1025.2,587.8l-36.7-21.3l-0.2,0.1l17.1,32.6L1025.2,587.8"/>
			<path class="st8" d="M1251.2,554.1c17-9.8,43-10,59.8-0.1c13.6,7.9,16.1,18.2,17.4,28.8l2.1,17l30.4-17.5l15.7,9.1l-62.5,36.1
				l-6-30.8c-1.5-8.5-3.9-25.7-14.3-31.7c-6.6-3.8-19.2-6.2-26.8-1.8c-8.1,4.7-3,11.9,4.3,15.8l-19.2,11.1
				C1235.7,579,1232.2,565.2,1251.2,554.1z"/>
			<path class="st8" d="M1100.2,800c17-9.8,43-10,59.8-0.2c13.6,7.9,16.1,18.2,17.4,28.8l2.1,17l30.4-17.5l15.6,9.1l-62.5,36.1
				l-5.9-30.8c-1.6-8.4-3.9-25.6-14.3-31.7c-6.6-3.8-19.2-6.2-26.8-1.8c-8.1,4.7-3,11.9,4.3,15.8l-19.2,11.1
				C1084.6,824.9,1081.2,811,1100.2,800z"/>
			<path class="st8" d="M1400.8,800c17-9.8,43-10,59.8-0.2c13.6,7.9,16.1,18.2,17.4,28.8l2.1,17l30.4-17.5l15.6,9.1l-62.5,36.1
				l-6-30.8c-1.5-8.5-3.9-25.6-14.3-31.7c-6.6-3.8-19.2-6.2-26.8-1.8c-8.1,4.7-3,11.9,4.3,15.8l-19.2,11.1
				C1385.2,824.9,1381.8,811,1400.8,800z"/>
			<path class="st8" d="M813.7,800c17-9.8,43-10,59.8-0.2c13.6,7.9,16.1,18.2,17.4,28.8l2.1,17.1l30.4-17.5l15.6,9.1l-62.5,36.1
				l-6-30.8c-1.5-8.5-3.9-25.7-14.3-31.7c-6.6-3.8-19.2-6.2-26.8-1.8c-8.1,4.7-3,11.9,4.3,15.8l-19.2,11.1
				C798.1,824.9,794.6,811,813.7,800z"/>
			<path class="st10" d="M1075.6,65.1l7.6-4.4l11.2,6.5l-7.6,4.4l12.6,7.4l-13.2,7.6l-12.6-7.3l-31.7,18.3l-6.3-3.6L1013.8,44
				l12.8-7.4L1075.6,65.1z M1062.4,72.7L1034,56.2l-0.2,0.1l13.3,25.3L1062.4,72.7"/>
			<path class="st10" d="M953,78.5c13.2-7.6,33.3-7.7,46.4-0.1c10.5,6.1,12.5,14.1,13.5,22.3l1.6,13.2l23.6-13.6l12.1,7.1l-48.5,28
				l-4.6-23.9c-1.2-6.6-3-19.9-11.1-24.6c-5.1-3-14.9-4.8-20.8-1.4c-6.3,3.6-2.3,9.3,3.4,12.2l-14.9,8.6
				C940.9,97.8,938.2,87,953,78.5z"/>
			<path class="st10" d="M1740.4,268.1c13.2-7.6,33.3-7.7,46.4-0.1c10.5,6.1,12.5,14.1,13.5,22.3l1.7,13.2l23.6-13.6l12.1,7.1
				l-48.5,28l-4.6-23.9c-1.2-6.6-3-19.9-11.1-24.6c-5.1-3-14.9-4.8-20.8-1.4c-6.3,3.6-2.3,9.3,3.4,12.2l-14.9,8.6
				C1728.3,287.4,1725.6,276.6,1740.4,268.1z"/>
			<path class="st10" d="M1863.1,254.8l7.6-4.4l11.2,6.5l-7.6,4.4l12.6,7.3l-13.2,7.6l-12.6-7.3l-31.7,18.3l-6.3-3.6l-21.9-49.9
				l12.8-7.4L1863.1,254.8z M1849.9,262.4l-28.5-16.5l-0.2,0.1l13.3,25.3L1849.9,262.4"/>
			<path class="st15" d="M1917.4,465.9c14.1-8.1,35.7-8.3,49.7-0.1c11.3,6.5,13.3,15.1,14.4,23.9l1.8,14.1l25.2-14.6l13,7.5
				l-51.9,30l-4.9-25.6c-1.3-7-3.2-21.3-11.9-26.3c-5.5-3.2-16-5.1-22.3-1.5c-6.7,3.9-2.5,9.9,3.6,13.1l-15.9,9.2
				C1904.4,486.5,1901.5,475,1917.4,465.9z"/>
			<polygon class="st15" points="1871.1,495 1947.6,539.4 1932.6,548.1 1869.1,511.2 1858.9,517 1846,509.5 			"/>
			<path class="st8" d="M1620.3,472.5c17-9.8,43-9.9,59.8-0.1c13.6,7.9,16.1,18.2,17.4,28.8l2.1,17l30.4-17.5l15.7,9.1l-62.5,36.1
				l-6-30.8c-1.6-8.5-3.9-25.6-14.3-31.7c-6.6-3.8-19.2-6.2-26.8-1.8c-8.1,4.7-3,11.9,4.3,15.8l-19.2,11.1
				C1604.7,497.3,1601.2,483.5,1620.3,472.5z"/>
			<path class="st4" d="M84.8,450.4c17-9.8,42.2-7.4,58.1,1.9c18.9,11,18.9,26.8-0.2,37.8c-18.3,10.6-45.3,11.3-63.8,0.6
				c-9.3-5.4-16.3-14.1-19.5-24.4l-11.7-35.3l22.8-2.1l7.7,26.6h0.5C80.5,453.3,82.5,451.7,84.8,450.4z M128,481.6
				c9.1-5.3,5.7-13.6-2.5-18.4s-22.8-6.8-31.9-1.6s-5.8,13.7,2.5,18.5S118.9,486.9,128,481.6"/>
			<path class="st8" d="M-21.2,622.8c17-9.8,43-10,59.8-0.2c13.6,7.9,16.1,18.2,17.4,28.8l2.1,17L88.5,651l15.6,9l-62.5,36.1
				l-6-30.8c-1.5-8.5-3.9-25.6-14.3-31.7c-6.6-3.8-19.2-6.2-26.8-1.8c-8.1,4.7-3,11.9,4.3,15.8l-19.2,11.1
				C-36.8,647.7-40.3,633.8-21.2,622.8z"/>
			<path class="st6" d="M242.5,618.4c16-9.2,36.8-9.5,52.7-0.3c7.1,4.1,12.5,10.2,10.3,16.3c12.2-2.8,26,1.3,34.4,6.2
				c18.1,10.5,16.2,24.7-1.5,34.9c-17,9.8-42.4,9.9-59.8,0.8l18.2-10.5c7.7,4,18.7,4.8,26.7,0.2s4.9-11.6-2.4-15.8
				s-19.3-5.9-26.9-1.5c-0.3,0.2-0.6,0.3-0.9,0.5l-3.1,2.1l-12.8-7.5l2-1.1c7.8-4.5,6.8-9.7-0.9-14.2c-6.1-3.5-15.6-4.6-22.3-0.7
				c-6.4,3.7-3.9,9.2,1.5,12.6l-17.2,10C226.4,640.1,225.9,628,242.5,618.4z"/>
		</g>
	</g>
</g>
</svg>
